<svg width="87" height="34" viewBox="0 0 87 34" fill="none" xmlns="http://www.w3.org/2000/svg">
<path d="M6.35965 0.513672H0V6.92877H6.35965V0.513672Z" fill="#828282"/>
<path d="M6.10527 33.6151V10.6491H0.127197V33.4868H6.10527V33.6151ZM45.7895 33.7434V28.2264C44.8991 28.2264 44.136 28.2264 43.6272 28.0981C42.9912 27.9698 42.4825 27.8415 42.2281 27.4566C41.9737 27.2 41.7193 26.6868 41.5921 26.0453C41.4649 25.5321 41.4649 24.7623 41.4649 23.8642V15.9094H45.7895V10.7774H41.4649V1.79623H35.4868V23.8642C35.4868 25.7887 35.614 27.3283 35.9956 28.6113C36.25 29.8943 36.886 30.9208 37.6491 31.6906C38.4123 32.4604 39.4298 32.9736 40.5746 33.3585C41.7193 33.7434 43.3728 33.8717 45.1535 33.8717H45.7895V33.7434ZM80.0044 33.6151V0H74.0263V33.6151H80.0044ZM29.636 12.9585C27.9825 11.1623 25.693 10.2642 22.7675 10.2642C21.3684 10.2642 19.9693 10.5208 18.8246 11.1623C17.6798 11.8038 16.6623 12.5736 15.8991 13.6L15.5175 13.9849V13.6V10.6491H9.66667V33.4868H15.6447V21.2981V22.1962C15.6447 22.0679 15.6447 21.9396 15.6447 21.8113C15.6447 19.6302 16.2807 18.0906 17.1711 17.0642C18.1886 16.0377 19.4605 15.3962 20.9868 15.3962C22.7675 15.3962 24.0395 15.9094 24.9298 16.9359C25.8202 17.9623 26.2018 19.5019 26.2018 21.2981V33.3585H32.1798V20.5283C32.1798 17.3208 31.2895 14.7547 29.636 12.9585ZM70.9737 22.0679C70.9737 20.4 70.7193 18.8604 70.0833 17.4491C69.4474 16.0377 68.6842 14.7547 67.6667 13.7283C66.6491 12.7019 65.3772 11.8038 63.9781 11.1623C62.579 10.5208 60.9254 10.2642 59.2719 10.2642C57.6184 10.2642 56.0921 10.5208 54.693 11.1623C53.2939 11.8038 52.0219 12.7019 51.0044 13.7283C49.9868 14.7547 49.0965 16.0377 48.4605 17.4491C47.8246 18.8604 47.5702 20.4 47.5702 22.0679C47.5702 23.7359 47.8246 25.2755 48.4605 26.6868C49.0965 28.0981 49.8597 29.3811 50.8772 30.4076C51.8947 31.434 53.1667 32.3321 54.693 32.9736C56.2193 33.6151 57.7456 33.8717 59.5263 33.8717C64.614 33.8717 67.7939 31.5623 69.5746 29.3811L65.25 26.0453C64.3597 27.0717 62.1974 28.6113 59.5263 28.6113C57.8728 28.6113 56.4737 28.2264 55.4561 27.4566C54.4386 26.6868 53.6754 25.6604 53.2939 24.2491V23.9925H71.1009V22.0679H70.9737ZM53.1667 20.0151C53.1667 18.3472 55.0746 15.3962 59.1447 15.3962C63.2149 15.3962 65.1228 18.3472 65.1228 20.0151H53.1667Z" fill="#828282"/>
<path d="M86.8727 30.6643C86.7455 30.4076 86.6183 30.151 86.3639 29.8944C86.1095 29.6378 85.9823 29.5095 85.6007 29.3812C85.3463 29.2529 85.0919 29.2529 84.7104 29.2529C84.456 29.2529 84.0744 29.2529 83.82 29.3812C83.5656 29.5095 83.3113 29.6378 83.0569 29.8944C82.8025 30.151 82.6753 30.2793 82.5481 30.6643C82.4209 30.9209 82.4209 31.1775 82.4209 31.5624C82.4209 31.819 82.4209 32.2039 82.5481 32.4605C82.6753 32.7171 82.8025 32.9737 83.0569 33.2303C83.3113 33.4869 83.4384 33.6152 83.82 33.7435C84.0744 33.8718 84.3288 33.8718 84.7104 33.8718C84.9648 33.8718 85.3463 33.8718 85.6007 33.7435C85.8551 33.6152 86.1095 33.4869 86.3639 33.2303C86.6183 32.9737 86.7455 32.8454 86.8727 32.4605C86.9998 32.2039 86.9998 31.9473 86.9998 31.5624C86.9998 31.3058 86.9998 30.9209 86.8727 30.6643ZM86.4911 32.2039C86.3639 32.4605 86.2367 32.5888 86.1095 32.8454C85.9823 32.9737 85.7279 33.102 85.4735 33.2303C85.2191 33.3586 85.0919 33.3586 84.8376 33.3586C84.5832 33.3586 84.3288 33.3586 84.0744 33.2303C83.82 33.102 83.6928 32.9737 83.4384 32.8454C83.3112 32.7171 83.1841 32.4605 83.0569 32.2039C82.9297 31.9473 82.9297 31.6907 82.9297 31.4341C82.9297 31.1775 82.9297 30.9209 83.0569 30.6643C83.1841 30.4076 83.3112 30.2793 83.4384 30.0227C83.5656 29.8944 83.82 29.7661 84.0744 29.6378C84.3288 29.5095 84.5832 29.5095 84.8376 29.5095C85.0919 29.5095 85.3463 29.5095 85.6007 29.6378C85.8551 29.7661 85.9823 29.8944 86.2367 30.0227C86.3639 30.151 86.4911 30.4076 86.6183 30.6643C86.7455 30.9209 86.7455 31.1775 86.7455 31.4341C86.6183 31.819 86.6183 32.0756 86.4911 32.2039ZM85.2191 31.6907C85.3463 31.6907 85.4735 31.5624 85.6007 31.4341C85.7279 31.3058 85.7279 31.1775 85.7279 30.9209C85.7279 30.6643 85.6007 30.536 85.4735 30.4076C85.3463 30.2793 85.0919 30.151 84.8376 30.151H83.9472V32.7171H84.456V31.6907H84.8376L85.4735 32.7171H85.9823L85.2191 31.6907ZM84.9648 31.3058C84.8376 31.3058 84.8376 31.3058 84.7104 31.3058H84.3288V30.5359H84.7104C84.8376 30.5359 84.8376 30.5359 84.9648 30.5359C85.092 30.5359 85.0919 30.5359 85.2191 30.5359C85.2191 30.5359 85.3463 30.5359 85.3463 30.6643C85.3463 30.6643 85.3463 30.7926 85.3463 30.9209C85.3463 31.0492 85.3463 31.0492 85.3463 31.1775L85.2191 31.3058C85.0919 31.3058 84.9648 31.3058 84.9648 31.3058Z" fill="#828282"/>
</svg>
