<svg width="129" height="42" viewBox="0 0 129 42" fill="none" xmlns="http://www.w3.org/2000/svg">
<path d="M27.9907 29.1621H27.2456V32.7708H28.0185C29.1306 32.7708 29.859 32.2679 29.859 30.9637C29.859 29.6595 29.1083 29.1621 27.9907 29.1621Z" fill="#828282"/>
<path d="M34.2517 18.6011C33.8403 18.1866 31.8385 17.2361 31.3548 16.8438C28.4078 19.3859 25.3607 21.5522 21.1293 21.5522C20.804 21.5517 20.479 21.5314 20.1562 21.4914V22.8011C20.4954 22.8343 20.8402 22.8564 21.196 22.8564C24.9215 22.8343 31.4493 20.9443 34.2517 18.6011Z" fill="#828282"/>
<path d="M20.6287 11.3736C24.8045 11.2465 27.5402 14.9547 27.5402 14.9547C27.5402 14.9547 24.5821 19.0607 21.4238 19.0607C21.0043 19.061 20.5874 18.9938 20.1895 18.8618V20.061C20.5747 20.1308 20.9655 20.1659 21.3571 20.166C25.8832 20.166 30.2203 14.8939 30.2203 14.8939C30.2203 14.8939 26.4448 9.92019 20.6398 10.1357L20.1895 10.1633V11.3957L20.6287 11.3736Z" fill="#828282"/>
<path d="M15.2076 15.3247C16.5449 13.9898 18.2965 13.1427 20.1786 12.9208V11.3955C18.8252 11.5026 17.5099 11.8928 16.3188 12.5404C15.1277 13.188 14.0877 14.0785 13.2671 15.1534C13.2671 15.1534 15.013 20.8234 20.1786 21.47V20.0608C16.2864 19.37 15.2076 15.3247 15.2076 15.3247Z" fill="#828282"/>
<path d="M20.1728 14.2416C18.5436 14.0426 17.2759 15.5624 17.2759 15.5624C17.2759 15.5624 17.9876 18.1266 20.1784 18.8782V14.2416H20.1728Z" fill="#828282"/>
<path d="M23.109 16.7782L25.2775 14.949C24.7583 14.3215 24.1102 13.8115 23.3767 13.4532C22.6431 13.0948 21.8409 12.8964 21.0239 12.8711C20.7415 12.8736 20.4594 12.8902 20.1787 12.9208V14.2416C21.8079 14.435 22.1304 15.1535 23.109 16.7782Z" fill="#828282"/>
<path d="M0 0V42H117.735L129 0H0ZM20.1785 10.1629V7.88605H36.1756V24.7579H20.1785V22.7795C13.1613 22.1053 10.6592 14.9211 10.6592 14.9211C10.6592 14.9211 15.0797 10.5718 20.1785 10.1629ZM14.8294 34.125H13.0724V31.3618C13.0724 30.4721 12.9612 29.9858 12.6776 29.7039C12.5494 29.5688 12.3941 29.4621 12.2216 29.3906C12.0492 29.3192 11.8635 29.2848 11.6767 29.2895H10.2533V34.1139H8.44616V27.7697H11.6767C13.2392 27.7697 14.8406 28.1068 14.8406 30.6158L14.8294 34.125ZM19.7337 34.125H17.1481L15.1019 27.7808H17.0369L18.4715 32.8097L19.9672 27.7808H21.7966L19.7337 34.125ZM24.3432 34.125H22.5528V27.7808H24.3432V34.125ZM30.9489 33.2905C30.3928 33.8432 29.898 34.125 28.3466 34.125H25.4386V27.7808H27.9574C29.3864 27.7808 30.3428 27.9521 31.0045 28.8363C31.4226 29.4962 31.6264 30.2679 31.5883 31.0468C31.6339 31.8448 31.4087 32.6349 30.9489 33.2905ZM34.2128 34.125H32.4224V27.7808H34.2184L34.2128 34.125ZM40.4459 34.125L40.0678 33.0197H37.1042L36.7094 34.125H34.9412L37.4489 27.7863H39.8399L42.3643 34.125H40.4459ZM43.6098 34.65C43.4321 34.6544 43.2571 34.6061 43.1071 34.5113C42.9571 34.4165 42.8389 34.2794 42.7676 34.1176C42.6963 33.9558 42.675 33.7765 42.7066 33.6027C42.7381 33.4288 42.821 33.2682 42.9447 33.1413C43.0684 33.0145 43.2273 32.9271 43.4012 32.8903C43.575 32.8535 43.756 32.869 43.9209 32.9348C44.0859 33.0006 44.2274 33.1137 44.3275 33.2597C44.4276 33.4058 44.4816 33.5781 44.4828 33.7547C44.4843 33.9874 44.3935 34.2112 44.2301 34.3777C44.0667 34.5443 43.8438 34.6401 43.6098 34.6445V34.65ZM116.211 39.8945H49.1145L59.251 2.1H126.331L116.211 39.8945Z" fill="#828282"/>
<path d="M43.6096 33.0422C43.4658 33.0389 43.3242 33.0783 43.203 33.1555C43.0818 33.2327 42.9866 33.344 42.9295 33.4753C42.8724 33.6066 42.856 33.7518 42.8824 33.8924C42.9088 34.033 42.9769 34.1625 43.0779 34.2644C43.1788 34.3663 43.3081 34.436 43.4491 34.4645C43.5901 34.4929 43.7365 34.4789 43.8695 34.4242C44.0024 34.3695 44.1159 34.2766 44.1954 34.1574C44.2749 34.0382 44.3169 33.8981 44.3158 33.7551C44.3188 33.6616 44.3027 33.5684 44.2684 33.4813C44.2341 33.3942 44.1824 33.3149 44.1164 33.2482C44.0504 33.1816 43.9714 33.1289 43.8843 33.0935C43.7972 33.0581 43.7037 33.0406 43.6096 33.0422ZM43.7709 34.2248L43.5985 33.8601H43.4984V34.2248H43.2871V33.2853H43.6708C43.7111 33.2831 43.7515 33.289 43.7895 33.3026C43.8275 33.3163 43.8624 33.3374 43.892 33.3648C43.9216 33.3921 43.9453 33.4251 43.9618 33.4618C43.9782 33.4985 43.987 33.5381 43.9877 33.5782C43.9878 33.6336 43.9707 33.6877 43.9389 33.7331C43.9071 33.7786 43.862 33.8132 43.8098 33.8324L44.01 34.2248H43.7709Z" fill="#828282"/>
<path d="M37.4878 31.909H39.6953L38.611 28.9414L37.4878 31.909Z" fill="#828282"/>
<path d="M43.6431 33.4561H43.4985V33.7103H43.6431C43.6617 33.7142 43.681 33.7139 43.6995 33.7095C43.718 33.7051 43.7353 33.6966 43.7501 33.6847C43.7649 33.6728 43.7769 33.6577 43.7851 33.6406C43.7933 33.6235 43.7975 33.6049 43.7975 33.5859C43.7975 33.567 43.7933 33.5483 43.7851 33.5312C43.7769 33.5141 43.7649 33.4991 43.7501 33.4872C43.7353 33.4752 43.718 33.4668 43.6995 33.4623C43.681 33.4579 43.6617 33.4577 43.6431 33.4616V33.4561Z" fill="#828282"/>
<path d="M79.8241 34.119H76.3489L72.2843 27.3769H69.2484V34.119H66.04V17.5732H75.9764C76.7137 17.5732 77.4209 17.8644 77.9422 18.3826C78.4636 18.9007 78.7565 19.6036 78.7565 20.3364V24.6082C78.7565 25.3411 78.4636 26.0439 77.9422 26.5621C77.4209 27.0803 76.7137 27.3714 75.9764 27.3714H75.7818L79.8241 34.119ZM69.2595 24.4425H74.653C74.7622 24.4432 74.8705 24.4222 74.9714 24.3807C75.0723 24.3392 75.1639 24.2779 75.2406 24.2007C75.3173 24.1234 75.3776 24.0316 75.4181 23.9308C75.4585 23.8299 75.4782 23.722 75.4759 23.6135V21.3588C75.4789 21.1379 75.3943 20.9247 75.2402 20.7654C75.0862 20.6061 74.8752 20.5135 74.653 20.5077H69.2595V24.4425Z" fill="#828282"/>
<path d="M93.2694 17.5732V20.4469H88.5319V34.119H85.3014V20.4469H80.564V17.5732H93.2694Z" fill="#828282"/>
<path d="M105.613 17.5732H109.177L103.978 25.4206L109.489 34.119H105.596L102.004 28.4767L98.3622 34.119H94.8203L100.303 25.7853L95.1317 17.5732H99.0239L102.31 22.7846L105.613 17.5732Z" fill="#828282"/>
<path d="M111.374 17.5732V17.7501H110.873V19.1096H110.651V17.7501H110.178V17.5732H111.374ZM112.842 17.5732H113.047V19.1096H112.875V17.9103L112.425 18.6785H112.258L111.835 17.949V19.1096H111.629V17.5732H111.824L112.341 18.4685L112.842 17.5732Z" fill="#828282"/>
<path d="M66.0235 9.04627C66.0227 8.89413 66.0522 8.74334 66.1103 8.60257C66.1684 8.4618 66.2539 8.33382 66.3619 8.22599C66.4698 8.11815 66.5982 8.03258 66.7396 7.97419C66.8809 7.9158 67.0325 7.88574 67.1856 7.88574H71.5782V9.14022H67.7416C67.6491 9.14017 67.5602 9.17591 67.4938 9.23987C67.4274 9.30383 67.3886 9.39097 67.3857 9.48285V12.7378C67.387 12.8286 67.4228 12.9154 67.4858 12.981L67.9751 13.4673C68.0082 13.5014 68.0479 13.5284 68.092 13.5464C68.136 13.5645 68.1833 13.5733 68.2309 13.5723H70.0936C70.1394 13.5723 70.1847 13.5633 70.2268 13.5457C70.269 13.5282 70.3073 13.5024 70.3394 13.47C70.3715 13.4376 70.3967 13.3992 70.4137 13.357C70.4307 13.3148 70.4391 13.2696 70.4384 13.2242V11.9752H68.8036V10.7263H71.8118V13.6718C71.8118 13.9767 71.6899 14.269 71.473 14.4846C71.2561 14.7002 70.962 14.8213 70.6552 14.8213H67.5581C67.4648 14.822 67.375 14.7863 67.3079 14.7218L66.1235 13.5392C66.0595 13.4742 66.0236 13.3869 66.0235 13.296V9.04627Z" fill="#828282"/>
<path d="M74.3585 9.11811V10.7428H77.1776V11.9752H74.3585V13.5889H77.8448V14.8213H73.0073V7.88574H77.8448V9.11811H74.3585Z" fill="#828282"/>
<path d="M80.2356 14.8213H78.8789V7.88574H83.7442V9.11811H80.2356V10.7428H83.0492V11.9752H80.2356V14.8213Z" fill="#828282"/>
<path d="M84.7061 9.04627C84.7046 8.74184 84.8241 8.44913 85.0386 8.23181C85.2531 8.01448 85.5452 7.89011 85.8515 7.88574H89.3323C89.6395 7.88866 89.9331 8.01239 90.1488 8.22988C90.3645 8.44736 90.4848 8.74089 90.4833 9.04627V13.6718C90.484 13.8225 90.4548 13.9718 90.3973 14.1113C90.3397 14.2507 90.2551 14.3775 90.1481 14.4843C90.0412 14.5911 89.914 14.6758 89.774 14.7337C89.634 14.7915 89.4839 14.8213 89.3323 14.8213H85.8515C85.7003 14.8205 85.5508 14.7902 85.4115 14.7321C85.2721 14.6739 85.1456 14.589 85.0393 14.4823C84.9329 14.3756 84.8487 14.2491 84.7915 14.11C84.7344 13.9709 84.7053 13.822 84.7061 13.6718V9.04627ZM88.7929 13.5889C88.8387 13.5896 88.8841 13.5813 88.9266 13.5644C88.969 13.5475 89.0077 13.5224 89.0403 13.4905C89.0729 13.4586 89.0988 13.4206 89.1165 13.3787C89.1341 13.3367 89.1432 13.2917 89.1432 13.2463V9.47179C89.1432 9.37894 89.1065 9.28981 89.041 9.22364C88.9754 9.15746 88.8863 9.11956 88.7929 9.11811H86.3909C86.3448 9.11883 86.2994 9.12855 86.2572 9.14672C86.215 9.16488 86.1768 9.19113 86.1448 9.22398C86.1128 9.25682 86.0876 9.29561 86.0706 9.33813C86.0537 9.38065 86.0454 9.42607 86.0461 9.47179V13.2628C86.0461 13.3537 86.0824 13.4409 86.1471 13.5051C86.2117 13.5694 86.2994 13.6055 86.3909 13.6055L88.7929 13.5889Z" fill="#828282"/>
<path d="M97.4115 14.8213H95.9602L94.2476 11.9973H92.9743V14.8213H91.6343V7.88574H95.7934C95.9465 7.88574 96.0981 7.9158 96.2394 7.97419C96.3808 8.03258 96.5091 8.11815 96.6171 8.22599C96.7251 8.33382 96.8106 8.4618 96.8687 8.60257C96.9267 8.74334 96.9563 8.89413 96.9555 9.04627V10.8368C96.9563 10.9889 96.9267 11.1397 96.8687 11.2805C96.8106 11.4213 96.7251 11.5492 96.6171 11.6571C96.5091 11.7649 96.3808 11.8505 96.2394 11.9089C96.0981 11.9673 95.9465 11.9973 95.7934 11.9973H95.7156L97.4115 14.8213ZM92.9632 10.765H95.2263C95.3182 10.7635 95.4059 10.7262 95.4704 10.661C95.5349 10.5959 95.571 10.5082 95.571 10.4168V9.47179C95.5717 9.42607 95.5634 9.38065 95.5465 9.33813C95.5295 9.29561 95.5044 9.25682 95.4723 9.22398C95.4403 9.19113 95.4021 9.16488 95.3599 9.14672C95.3177 9.12855 95.2723 9.11883 95.2263 9.11811H92.9632V10.765Z" fill="#828282"/>
<path d="M102.76 9.11811H99.8191C99.7281 9.11953 99.6412 9.15609 99.5769 9.22004C99.5125 9.28399 99.4758 9.37031 99.4743 9.46074V13.2628C99.4743 13.3537 99.5106 13.4409 99.5753 13.5051C99.6399 13.5694 99.7276 13.6055 99.8191 13.6055H102.76V14.8378H99.2908C99.139 14.8378 98.9886 14.8081 98.8482 14.7503C98.7079 14.6926 98.5804 14.6079 98.473 14.5012C98.3656 14.3944 98.2804 14.2677 98.2223 14.1283C98.1642 13.9888 98.1343 13.8393 98.1343 13.6884V9.04627C98.1336 8.89459 98.1629 8.74426 98.2206 8.60385C98.2783 8.46344 98.3633 8.3357 98.4707 8.22794C98.5781 8.12017 98.7058 8.03449 98.8465 7.97577C98.9873 7.91706 99.1382 7.88647 99.2908 7.88574H102.76V9.11811Z" fill="#828282"/>
<path d="M105.224 9.11811V10.7428H108.043V11.9752H105.224V13.5889H108.738V14.8213H103.873V7.88574H108.738V9.11811H105.224Z" fill="#828282"/>
</svg>
