<svg width="81" height="68" viewBox="0 0 81 68" fill="none" xmlns="http://www.w3.org/2000/svg">
<path fill-rule="evenodd" clip-rule="evenodd" d="M51.0918 50.748H53.0662V57.6878H51.0918V50.748Z" fill="#828282"/>
<path fill-rule="evenodd" clip-rule="evenodd" d="M26.3289 57.6878H28.313H31.9409H33.925V56.6615V50.748H31.9409V56.6615H28.313V50.748H26.3289V56.6615V57.6878Z" fill="#828282"/>
<path fill-rule="evenodd" clip-rule="evenodd" d="M9.62891 50.748H17.0986L16.0774 51.7744H11.6131V53.7097H16.5637H16.6415V54.736H16.5637H11.6131V56.6713H16.0385H16.0774L17.0986 57.6976H9.62891V50.748Z" fill="#828282"/>
<path fill-rule="evenodd" clip-rule="evenodd" d="M0 55.86L1.98415 57.9029V51.7646H6.22478C6.29287 51.7646 6.33177 51.8134 6.33177 51.8721V54.4721H2.7428L8.33537 60.2096V57.8051L6.29287 55.6939H8.33537V51.7548C8.33537 51.6864 8.33537 51.6277 8.33537 51.5593C8.33537 51.3052 8.31592 51.0999 8.26729 51.0022C8.19921 50.8653 8.06304 50.748 7.85879 50.748H0V55.86Z" fill="#828282"/>
<path fill-rule="evenodd" clip-rule="evenodd" d="M31.9993 68.0003H33.9834V64.0221L36.0162 65.4003L38.049 64.0221V68.0003H40.0331V61.0898C38.6812 61.9989 37.3487 62.947 36.0162 63.8853C34.6837 62.947 33.3512 61.9989 31.9993 61.0898V68.0003Z" fill="#828282"/>
<path fill-rule="evenodd" clip-rule="evenodd" d="M14.2197 68.0003H21.9813V65.3612V64.2372V64.1492H21.9034H20.4153H19.9971V66.974H16.2039V62.1064H20.9405L21.9521 61.0801H14.2197V68.0003Z" fill="#828282"/>
<path fill-rule="evenodd" clip-rule="evenodd" d="M20.1235 51.7646H23.2748C23.3429 51.7646 23.3818 51.8134 23.3818 51.8721V54.3841H20.1235V51.7646ZM18.1296 57.6878H20.1235V55.4202H25.3951V51.3541C25.3951 51.0022 25.2395 50.748 24.8991 50.748H18.1296V57.6878Z" fill="#828282"/>
<path fill-rule="evenodd" clip-rule="evenodd" d="M41.6768 53.5337H42.1728V53.5924V54.4428C42.1728 55.5179 42.1728 56.6029 42.1728 57.6781C39.7413 57.6781 37.3097 57.6781 34.8782 57.6781C34.8782 55.3615 34.8782 53.0548 34.8782 50.7383H41.21C41.5017 50.7383 41.6768 50.9924 41.6768 51.2954V53.5337ZM36.8623 54.56H40.1887V56.6615H36.8623V54.56ZM36.979 51.7646H39.9066H39.9844H40.1692C40.2276 51.7646 40.2762 51.8135 40.2762 51.8721V52.1262V53.4164V53.524H40.1692H36.979H36.8623V53.4164V51.8721V51.7646H36.979Z" fill="#828282"/>
<path fill-rule="evenodd" clip-rule="evenodd" d="M43.3013 50.748H45.2854V56.6615H50.3236L50.3139 56.6713L49.3023 57.6878H45.2854H43.3013V56.6615V50.748Z" fill="#828282"/>
<path fill-rule="evenodd" clip-rule="evenodd" d="M54.175 50.748H56.1495H61.7129L60.7013 51.7548L60.6916 51.7646H56.1495V56.6615H61.7129L60.7013 57.6683L60.6916 57.6878H56.1495H54.175V56.6615V51.7646V50.748Z" fill="#828282"/>
<path fill-rule="evenodd" clip-rule="evenodd" d="M67.2276 50.7188H69.9898H71.6141H71.9837C72.2074 50.7188 72.3922 50.9045 72.3922 51.1293V51.53V57.7074H71.974H69.9801H68.4725H67.2276L64.8252 55.2931V53.8759V51.1293V50.7188H65.2337H67.2276ZM68.5503 51.8526H68.6573H70.4081V53.612V54.9315V56.6909H68.6573H68.6282H68.5503L66.7996 54.9315V54.8728V53.6022V51.8428H68.5503V51.8526Z" fill="#828282"/>
<path fill-rule="evenodd" clip-rule="evenodd" d="M73.5691 50.748H75.5532H80.9999L79.9787 51.7548L79.9689 51.7646H75.5532V53.1721H80.7665L79.755 54.2082L79.7452 54.2277H75.5532V57.6878H73.5691V51.7646V50.748Z" fill="#828282"/>
<path fill-rule="evenodd" clip-rule="evenodd" d="M30.3751 61.0801C30.6183 61.0801 30.8128 61.2756 30.8128 61.5199C30.8128 63.6801 30.8128 65.8304 30.8128 67.9905C30.1514 67.9905 29.49 67.9905 28.8286 67.9905V65.0582H25.3369V67.9905C24.6755 67.9905 24.0142 67.9905 23.3528 67.9905C23.3528 65.6838 23.3528 63.3868 23.3528 61.0801C25.6968 61.0801 28.0311 61.0801 30.3751 61.0801ZM25.3369 62.1064H28.7216C28.7897 62.1064 28.8286 62.1553 28.8286 62.2139V64.0417H25.3369V62.1064Z" fill="#828282"/>
<path fill-rule="evenodd" clip-rule="evenodd" d="M42.4452 61.0801H43.1358H48.6019L47.5904 62.0966L47.5807 62.1064H43.1358V64.0124H48.1448V65.0387H43.1358V66.974H47.5807L47.5904 66.9838L48.6019 68.0003H43.1358H42.1729H41.1614V61.0801H42.4452Z" fill="#828282"/>
<path fill-rule="evenodd" clip-rule="evenodd" d="M49.5259 61.0801H50.0219H51.5003H56.7427C57.0053 61.0801 57.229 61.2951 57.229 61.5688V64.9214H56.1592H55.4394L58.1725 67.9905H55.6631L52.9301 64.9214L51.9477 63.8267L52.0644 63.7094H55.2449V62.2041C55.2449 62.1455 55.1963 62.0966 55.1379 62.0966H53.7081H51.6073H51.5003V62.2041V67.9905H50.0219H49.5259V61.0801Z" fill="#828282"/>
<path fill-rule="evenodd" clip-rule="evenodd" d="M59.009 61.0801H60.4484H66.0313L65.0198 62.0966L65.01 62.1064H60.4484V64.0417H63.9402H65.9146V65.068V68.0003H64.6015H63.9402H59.3494L59.3396 67.9905L58.3281 66.974H63.9402V65.068H60.4484H59.2618H58.4643V61.0801H59.009Z" fill="#828282"/>
<path fill-rule="evenodd" clip-rule="evenodd" d="M38.6909 25.5892C42.6203 23.0772 46.7345 20.6043 51.2669 18.0434C56.8984 14.857 62.5396 11.9638 67.2763 9.69613C72.9759 6.9691 77.343 5.1413 78.3253 4.81874C78.3253 4.83829 78.3253 4.85784 78.3253 4.88716V5.01423C78.3059 6.76383 77.3916 8.85554 75.495 9.73523C65.759 14.2119 42.1146 27.026 33.0303 33.9951C34.4989 34.6109 40.4903 36.4973 47.4932 36.9372C50.7223 37.1327 52.5314 36.4485 53.7374 35.8327C55.4395 34.9628 57.3847 33.2229 59.2327 30.3102C61.6837 26.4591 63.3177 21.7968 63.3177 21.7968L38.1074 32.6169C38.1074 32.6169 60.0984 18.9329 74.7363 12.2081C74.5029 13.7232 72.5966 18.9622 70.1067 24.3283C68.5796 27.6222 66.5955 30.8771 64.8642 33.5553C60.8278 39.7913 57.2194 41.2379 56.5386 41.4236C55.5173 41.7071 50.2554 41.5018 46.219 40.9251C37.8059 39.7033 28.3714 36.7906 25.2882 34.865C26.076 34.0929 31.7075 30.0561 38.6909 25.5892ZM71.8865 0H71.692C60.9251 0.00977433 51.3934 3.55786 50.7904 3.87063C49.2828 4.65258 45.7911 7.6142 44.9449 8.44502C44.0598 9.30516 39.7608 13.7818 35.1409 18.3073C30.9197 22.4321 26.4164 26.5862 24.1502 28.2185C22.4579 29.0395 15.7079 23.6245 12.5177 23.4486C13.5195 23.82 14.2976 25.7163 16.0191 29.02C17.3224 31.5222 19.219 35.041 21.5144 37.7876C23.9071 40.6514 27.5155 43.3394 30.5793 44.5905C28.1672 42.1762 23.9168 36.6537 23.9654 35.3733C24.0724 32.3823 30.9586 27.72 38.2435 21.9336C42.2702 18.7374 61.0029 4.09544 77.1971 0.332327C75.4172 0.107518 73.6373 0.00977433 71.8865 0ZM11.5159 31.2192C8.97732 29.8312 6.83755 28.2576 6.35124 27.5636C5.95246 26.9967 5.20354 25.5501 4.54216 23.5561C3.54036 20.5163 2.65527 16.6946 2.65527 16.6946C2.65527 16.6946 6.73056 21.9629 10.3195 26.1952C14.0252 30.5741 17.2543 33.9365 17.2543 33.9365C17.2543 33.9365 14.1906 32.6854 11.5159 31.2192Z" fill="#828282"/>
</svg>
