<svg width="142" height="49" viewBox="0 0 142 49" fill="none" xmlns="http://www.w3.org/2000/svg">
<path d="M65.2748 27.6053C64.0404 27.28 63.1016 26.8951 61.8369 26.196C61.3866 25.9471 60.2488 25.173 60.2488 25.1156C60.2488 25.0769 60.3039 25.0614 61.3083 24.8195C61.7261 24.7188 62.1849 24.6016 62.3278 24.559C62.4708 24.5164 62.7047 24.4522 62.8476 24.4164C62.9906 24.3805 63.4134 24.2635 63.7872 24.1564C64.6931 23.8968 64.8352 23.8731 65.0529 23.9458C65.2302 24.0051 65.3841 24.1212 65.4515 24.2466C65.5073 24.3505 65.7501 25.5824 65.9042 26.544C66.0972 27.7475 66.098 27.7552 66.0379 27.7754C66.0095 27.785 65.6661 27.7084 65.2748 27.6053Z" fill="#4F4F4F"/>
<path d="M67.4902 27.9959C67.029 27.955 66.9479 27.9373 66.9035 27.8681C66.8752 27.824 66.8318 27.6073 66.807 27.3866C66.6698 26.1602 66.2926 24.2244 66.1172 23.8465C66.027 23.6522 65.8026 23.4345 65.5692 23.315C65.333 23.194 64.897 23.1018 64.6801 23.1269C64.5774 23.1388 63.9027 23.3141 63.1807 23.5163C61.5979 23.9598 60.0042 24.3505 59.6492 24.382L59.3893 24.4051L59.0855 24.1225C58.2445 23.34 57.0422 21.7593 56.557 20.7983L56.4536 20.5936L56.622 20.5704C57.9419 20.3887 58.391 20.3207 59.0694 20.1999C61.657 19.739 65.3042 18.8004 69.025 17.6378C69.7282 17.4181 69.9246 17.3633 69.9246 17.3869C69.9246 17.3945 69.9879 17.5799 70.0654 17.799C70.4497 18.8863 70.9468 20.7263 71.1812 21.9292C71.4941 23.5349 71.6927 25.2562 71.7862 27.1718C71.8169 27.8011 71.8659 27.7288 71.344 27.8256C70.2988 28.0193 68.6011 28.0944 67.4902 27.9959Z" fill="#4F4F4F"/>
<path d="M72.533 26.6543C72.4699 25.5376 72.2951 23.8175 72.2223 23.5974C72.19 23.4997 72.1635 23.3245 72.1635 23.2081C72.1635 22.7211 71.6822 20.4583 71.2867 19.0863C71.0256 18.1805 70.6241 17.0041 70.4902 16.7527L70.3834 16.5521L70.104 16.5567C69.8773 16.5604 69.6698 16.6112 69.0049 16.8255C68.5541 16.9708 67.9964 17.1454 67.7655 17.2136C65.931 17.755 65.2798 17.9376 63.3475 18.452C62.495 18.679 60.8062 19.0706 59.869 19.2586C58.0437 19.6249 56.1911 19.8826 56.0755 19.7864C55.9661 19.6952 55.5409 18.5462 55.2945 17.6757C55.0965 16.9765 54.9132 15.8282 54.8654 14.9881L54.8394 14.5301L54.9353 14.5075C54.988 14.4951 55.508 14.3868 56.0907 14.267C60.2813 13.4052 64.3225 12.3041 68.9155 10.7727C70.0328 10.4002 70.7593 10.1793 70.9675 10.1487C71.3812 10.088 72.3016 10.1225 72.6233 10.2108C72.9992 10.3139 73.6454 10.6476 73.9682 10.9053C74.7448 11.5251 75.4217 12.5385 75.8995 13.7966C76.0639 14.2295 76.4941 15.6936 76.6973 16.5119C77.2521 18.7455 77.5254 21.1856 77.4658 23.3739C77.4352 24.4979 77.3857 24.9828 77.2875 25.1194C77.1149 25.3595 75.9212 26.122 74.9666 26.602C74.1448 27.0152 72.9058 27.487 72.6425 27.487C72.5895 27.487 72.573 27.3619 72.533 26.6543Z" fill="#4F4F4F"/>
<path d="M78.2401 22.8228C78.2397 22.013 78.2245 21.3919 78.2056 21.4217C78.1857 21.4532 78.1603 21.2131 78.1439 20.8399C78.0759 19.2885 77.786 17.552 77.3012 15.7903C77.1797 15.3489 77.0431 14.8355 76.9975 14.6493L76.9148 14.3109L77.008 14.2383C77.1509 14.127 82.4691 11.4534 82.4952 11.4797C82.5801 11.5648 82.7193 13.0209 82.7305 13.9393L82.7387 14.6148L82.593 14.7411C82.5129 14.8106 82.1991 15.0209 81.8957 15.2085C80.8342 15.8648 80.7351 15.9714 80.6154 16.5845C80.5466 16.9366 80.5467 16.9388 80.6552 17.6104C80.7872 18.4275 80.9069 19.4778 80.959 20.2753L80.9978 20.8679L80.8362 21.1329C80.4753 21.7246 79.9518 22.4754 79.6229 22.873C79.1372 23.4599 78.3657 24.2774 78.2975 24.2774C78.2495 24.2774 78.2406 24.053 78.2401 22.8228Z" fill="#4F4F4F"/>
<path d="M81.6638 19.3003C81.6519 19.2672 81.6142 18.9766 81.58 18.6546C81.5458 18.3327 81.4909 17.9173 81.458 17.7317C81.4251 17.5461 81.387 17.2398 81.3734 17.0511C81.3521 16.7581 81.3603 16.6811 81.4298 16.5236C81.499 16.3666 81.5548 16.3138 81.805 16.1692C81.9667 16.0758 82.2114 15.9291 82.3489 15.8434L82.5988 15.6875L82.5983 15.9389C82.5977 16.4181 82.3253 17.5894 81.9655 18.6605C81.7829 19.204 81.6956 19.3892 81.6637 19.3003H81.6638Z" fill="#4F4F4F"/>
<path d="M76.4911 13.1502C75.6864 11.3345 74.6895 10.2105 73.4029 9.66834C73.238 9.59884 73.088 9.52774 73.0695 9.51035C73.004 9.44854 74.8885 9.34994 76.1417 9.34961C78.6732 9.34895 80.4811 9.63042 81.5542 10.1923C81.8511 10.3478 82.2391 10.6448 82.199 10.6859C82.1132 10.7739 77.0531 13.3346 76.7693 13.4337L76.6372 13.4799L76.4911 13.1502Z" fill="#4F4F4F"/>
<path d="M54.8515 13.4322C54.852 12.3511 55.1467 10.77 55.5863 9.48961C55.9638 8.39009 56.3002 7.68133 56.4621 7.64435C56.5107 7.63323 56.9284 7.56125 57.3902 7.48439C60.1613 7.02316 63.5604 6.13888 67.4457 4.86843C70.4137 3.89794 72.3733 3.14429 74.5713 2.12799C74.9609 1.94784 75.3387 1.79176 75.4109 1.78114C75.523 1.76466 75.6237 1.81334 76.1019 2.11522C77.1693 2.78911 78.274 3.69474 78.9512 4.45124C79.259 4.795 79.3134 4.87509 79.2728 4.92428C79.122 5.10659 77.8035 5.97084 76.8215 6.53106C76.1675 6.90418 74.4095 7.78967 73.583 8.16226C72.1702 8.79915 69.9645 9.64413 68.2454 10.207C67.5966 10.4194 66.9039 10.6466 66.706 10.7119C65.0089 11.272 60.7272 12.4434 58.6896 12.9052C58.6346 12.9176 58.3198 12.9901 57.9899 13.0662C56.8882 13.3204 55.1223 13.683 54.986 13.683H54.8513V13.4322H54.8515Z" fill="#4F4F4F"/>
<path d="M56.8904 6.74185C56.8904 6.68493 57.3058 6.04718 57.584 5.67706C58.3452 4.66431 59.1655 3.81767 60.1491 3.02947C60.4276 2.80633 61.4619 2.08559 61.5037 2.08559C61.5157 2.08559 61.6354 2.01436 61.7696 1.9273C62.0765 1.72823 63.0612 1.24335 63.5874 1.03223C64.1989 0.786852 65.0128 0.526929 65.5665 0.400132C68.2239 -0.208343 70.7222 -0.088399 73.2366 0.768367C74.0167 1.03415 74.4425 1.21598 74.4425 1.28325C74.4425 1.33498 74.0341 1.53158 72.9432 2.00498C72.2571 2.30271 71.0181 2.80553 70.7642 2.8893C70.7092 2.90743 70.5653 2.96106 70.4443 3.00846C69.2649 3.47072 65.5653 4.67844 63.6873 5.21424C62.3472 5.59658 58.9763 6.43754 58.5296 6.50095C58.4087 6.51812 58.0129 6.58797 57.65 6.65619C56.9176 6.79388 56.8904 6.79695 56.8904 6.74185Z" fill="#4F4F4F"/>
<path d="M9.31079 39.1781V37.9561L12.489 37.9651C14.237 37.9701 15.6755 37.9825 15.6857 37.9927C15.6958 38.0029 15.6789 38.0609 15.648 38.1216C15.5506 38.3132 14.6286 39.9216 14.476 40.1661L14.3299 40.4002H11.8203H9.31079V39.1781Z" fill="#4F4F4F"/>
<path d="M6.08547 44.6744V40.4395H3.04628H0.00708008V39.1626V37.8857H2.85898C4.55077 37.8857 5.81914 37.8916 5.97703 37.8999C6.27169 37.9155 6.43258 37.9437 6.65832 38.0195C7.37052 38.2587 7.97085 38.8033 8.34052 39.5455C8.4354 39.736 8.51881 39.9498 8.6012 40.2137L8.67233 40.4415V44.6754V48.9092H7.3789H6.08547V44.6744Z" fill="#4F4F4F"/>
<path d="M21.2928 44.643C21.1746 44.4768 20.5883 43.4781 20.0923 42.5982C19.9022 42.261 19.8968 42.2493 19.9278 42.2376C20.0055 42.2082 21.4121 42.2003 26.6072 42.1998L32.152 42.1992V43.4761V44.7529H26.7615H21.3709L21.2928 44.643Z" fill="#4F4F4F"/>
<path d="M52.1194 37.874L52.1274 43.3565C52.1318 46.3719 52.1424 48.8503 52.151 48.8641C52.1632 48.8837 52.4498 48.8892 53.4748 48.8892H54.783V46.2257C54.783 44.7608 54.7889 42.2824 54.7962 40.7181L54.8095 37.874H53.4644H52.1194ZM65.5982 37.8744V39.9912V42.108L61.1951 42.1108C58.7735 42.1123 56.4214 42.119 55.9684 42.1258L55.1448 42.1381L55.5691 42.8804C56.1141 43.8339 56.4025 44.3262 56.5301 44.5205L56.6322 44.6758H61.1151H65.5982V46.7926V48.9097H66.9176H68.237V43.392V37.8743H66.9176L65.5982 37.8744ZM39.5989 37.8876C36.8178 37.8883 36.4613 37.9058 36.1537 37.9645C35.8738 38.018 35.4802 38.3015 35.2389 38.6235C35.1886 38.6906 35.0952 38.8489 35.0285 38.9804L34.9084 39.2166V43.3883V47.56L35.0063 47.7638C35.1708 48.1068 35.3491 48.3423 35.5769 48.5174C35.7603 48.6584 36.0055 48.7838 36.1909 48.8314C36.3871 48.8819 36.6034 48.8848 40.7678 48.8941C43.0225 48.8992 46.052 48.9047 47.5 48.9064L50.1327 48.9094V47.7319V46.5543L43.8317 46.5507L37.5307 46.5472L37.5271 43.4933L37.5236 40.4395L42.4033 40.4359L47.2829 40.4323L48.0368 39.1713C48.4515 38.4778 48.7886 37.9081 48.786 37.9055C48.7834 37.9029 46.304 37.8967 43.2761 37.8916C41.7223 37.889 40.5259 37.8873 39.5989 37.8875L39.5989 37.8876Z" fill="#4F4F4F"/>
<path d="M75.9135 48.8881C74.0649 48.8791 73.2639 48.8685 73.1648 48.8519C72.84 48.7972 72.4155 48.6127 72.1101 48.3934C71.8904 48.2356 71.5741 47.9152 71.4105 47.6848C71.2352 47.4379 70.9665 46.9013 70.916 46.6976C70.8949 46.6123 70.8683 46.4182 70.8568 46.2662C70.8327 45.9462 70.8298 43.7103 70.8491 40.2549L70.8624 37.874H72.1052H73.3481L73.3614 40.0259C73.3687 41.2094 73.3747 43.1175 73.3747 44.2661L73.3747 46.3545L76.1784 46.3678C77.7205 46.3752 80.2429 46.3812 81.7838 46.3812C84.4329 46.3812 84.5862 46.3831 84.6004 46.4163C84.6216 46.4659 84.646 47.3889 84.648 48.212L84.6496 48.9093L81.586 48.905C79.901 48.9027 77.3484 48.8951 75.9135 48.8881H75.9135Z" fill="#4F4F4F"/>
<path d="M85.9856 48.9704L85.7324 48.9595L86.124 48.2873C86.3394 47.9176 87.1597 46.5182 87.9469 45.1774C88.7342 43.8366 90.0213 41.644 90.8072 40.3049L92.2361 37.8701L92.7141 37.8821C92.977 37.8887 93.7822 37.8941 94.5035 37.8941H95.8149L96.5669 39.1732C96.9805 39.8767 98.434 42.3484 99.7969 44.6658C101.16 46.9832 102.286 48.8996 102.299 48.9245L102.323 48.9698L101.011 48.9646L99.6981 48.9595L99.5132 48.6585C99.4115 48.493 99.1573 48.0641 98.9483 47.7055L98.5682 47.0534L97.851 47.0411C97.4566 47.0343 96.1352 47.0275 94.9145 47.026L92.6952 47.0233L91.9322 45.9147L91.1693 44.8062L91.4428 44.7936C91.5932 44.7867 92.952 44.7799 94.4622 44.7785C96.9859 44.7763 97.2071 44.7735 97.1957 44.7435C97.1888 44.7257 96.6189 43.7505 95.9292 42.5766L94.6751 40.4423H94.0251C93.4234 40.4423 93.3735 40.4449 93.3529 40.478C93.3234 40.5254 90.9718 44.5201 89.5086 47.0082L88.3435 48.9895L87.2911 48.9854C86.7123 48.9832 86.1248 48.9764 85.9856 48.9704V48.9704Z" fill="#4F4F4F"/>
<path d="M103.382 44.6007C103.383 40.1603 103.392 39.4281 103.451 39.1982C103.579 38.6969 103.951 38.2502 104.428 38.0229C104.762 37.8636 104.724 37.8678 105.926 37.8591C107.22 37.8498 107.355 37.8591 107.588 37.9736C107.677 38.0172 107.792 38.0906 107.845 38.1367C107.93 38.2109 109.05 39.4712 110.589 41.2249C111.219 41.9422 113.02 44.0118 114.165 45.3336L115.003 46.3011H115.469H115.935V42.0475V37.7939H117.255H118.574L118.573 41.7817C118.573 43.9749 118.565 46.1396 118.555 46.592L118.538 47.4147L118.477 47.6053C118.378 47.91 118.258 48.1035 118.015 48.3478C117.706 48.6576 117.395 48.8183 117.001 48.871C116.75 48.9046 114.873 48.882 114.633 48.8426C114.416 48.8068 114.266 48.7384 114.134 48.6149C113.883 48.3801 111.275 45.4199 108.899 42.6737L106.969 40.444L106.495 40.4432L106.02 40.4424V44.6759V48.9094H104.701H103.381L103.382 44.6007Z" fill="#4F4F4F"/>
<path d="M121.233 45.2583V41.5665H122.533H123.832L123.83 42.0932C123.829 42.3829 123.818 43.5363 123.804 44.6564C123.791 45.7765 123.783 46.6997 123.787 46.708C123.791 46.7162 126.165 46.723 129.063 46.723H134.331L134.324 43.8756C134.32 42.3095 134.311 41.0221 134.304 41.0148C134.297 41.0075 131.923 40.9955 129.029 40.9881L123.767 40.9746L123.05 39.721C122.437 38.6505 122.337 38.4653 122.367 38.4534C122.387 38.4456 125.342 38.4387 128.935 38.4379L135.468 38.4365L135.672 38.5395C135.944 38.6767 136.085 38.7743 136.273 38.9567C136.54 39.215 136.719 39.527 136.807 39.8853C136.845 40.039 136.85 40.1507 136.869 41.3458C136.893 42.8025 136.877 47.0462 136.847 47.3465C136.788 47.9417 136.415 48.4719 135.856 48.7567C135.695 48.8386 135.602 48.8611 135.307 48.8904C134.908 48.93 132.277 48.9481 126.766 48.9491L121.233 48.9501V45.2583Z" fill="#4F4F4F"/>
<path d="M139.475 37.7615C138.854 37.6663 138.465 37.4727 138.064 37.0582C137.766 36.7504 137.584 36.4247 137.495 36.0374C137.266 35.0463 137.737 34.0373 138.651 33.5587C139.274 33.233 140.091 33.2221 140.741 33.5308C141.798 34.0333 142.268 35.2795 141.823 36.3971C141.719 36.6569 141.595 36.8406 141.375 37.0618C140.985 37.4526 140.668 37.623 140.146 37.7223C139.975 37.7548 139.581 37.7778 139.475 37.7615ZM140.145 37.2792C140.442 37.2184 140.656 37.0994 140.896 36.861C140.974 36.7837 141.076 36.6638 141.122 36.5945C141.241 36.4177 141.38 36.1185 141.404 35.9905C141.43 35.8499 141.43 35.2023 141.404 35.063C141.377 34.9201 141.212 34.5862 141.089 34.4232C140.943 34.2315 140.708 34.0163 140.541 33.923C140.291 33.7835 140.182 33.7581 139.785 33.7466C139.368 33.7346 139.257 33.7516 139.026 33.8623C138.371 34.1772 137.979 34.8041 137.98 35.5367C137.981 35.8033 138.015 35.9894 138.106 36.2137C138.343 36.7982 138.877 37.2306 139.465 37.314C139.612 37.3349 139.959 37.3171 140.144 37.2792H140.145Z" fill="#4F4F4F"/>
<path d="M138.889 35.588C138.895 34.5801 138.898 34.5027 138.931 34.4694C138.964 34.4366 139.018 34.4336 139.591 34.4336C140.186 34.4336 140.219 34.4356 140.307 34.4765C140.625 34.624 140.765 34.9848 140.613 35.2648C140.555 35.373 140.464 35.4549 140.319 35.5296L140.244 35.5686L140.39 35.7134C140.513 35.835 140.543 35.879 140.581 35.9887C140.638 36.155 140.763 36.6379 140.752 36.6493C140.743 36.6586 140.24 36.6523 140.23 36.6428C140.227 36.6398 140.193 36.5232 140.155 36.3837C140.018 35.8816 139.949 35.81 139.581 35.7925L139.365 35.7822V36.2265V36.6707H139.124H138.883L138.889 35.588ZM139.641 35.4267C139.914 35.4054 139.993 35.3783 140.084 35.2745C140.155 35.1927 140.178 35.0885 140.147 34.9844C140.102 34.835 139.921 34.7647 139.581 34.7647H139.365V35.1057C139.365 35.2933 139.372 35.4466 139.38 35.4464C139.388 35.446 139.506 35.4373 139.641 35.4267Z" fill="#4F4F4F"/>
<path d="M20.2971 48.8707C19.343 48.8486 19.3108 48.8451 19.0577 48.7376C18.577 48.5336 18.1793 48.2224 17.8206 47.7696C17.5414 47.4173 17.3643 47.0706 17.1786 46.5128L17.0149 46.0213L17.0276 43.3628L17.0403 40.7043L17.1496 40.3518C17.3705 39.6395 17.6254 39.1988 18.0886 38.728C18.4253 38.3858 18.645 38.2335 19.0661 38.0506L19.3975 37.9067L24.6618 37.901C27.5571 37.8979 29.9377 37.9071 29.952 37.9214C29.9664 37.9357 29.6662 38.4948 29.2851 39.1637C28.7322 40.134 28.5719 40.3856 28.4928 40.4077C28.4382 40.423 26.3739 40.4373 23.9055 40.4395L19.4175 40.4434V43.453V46.4627H25.7947H32.1718V47.6872V48.9118L26.7243 48.9027C23.7281 48.8976 20.8359 48.8832 20.2971 48.8707V48.8707Z" fill="#4F4F4F"/>
</svg>
