<svg width="18" height="22" viewBox="0 0 18 22" fill="none" xmlns="http://www.w3.org/2000/svg">
<path d="M12.0124 10.527C12.0124 11.1618 11.5664 11.6821 11.0015 11.6821C10.4465 11.6821 9.99059 11.1618 9.99059 10.527C9.99059 9.8922 10.4366 9.37187 11.0015 9.37187C11.5664 9.37187 12.0124 9.8922 12.0124 10.527ZM7.38402 9.37187C6.8191 9.37187 6.37311 9.8922 6.37311 10.527C6.37311 11.1618 6.82901 11.6821 7.38402 11.6821C7.94894 11.6821 8.39493 11.1618 8.39493 10.527C8.40484 9.8922 7.94894 9.37187 7.38402 9.37187ZM17.8499 2.7846V21.4538C15.3531 19.1369 16.1516 19.9038 13.2513 17.0726L13.7765 18.9978H2.53759C1.41766 18.9978 0.505859 18.0404 0.505859 16.8541V2.7846C0.505859 1.59826 1.41766 0.640869 2.53759 0.640869H15.8182C16.9381 0.640869 17.8499 1.59826 17.8499 2.7846ZM15.0253 12.6499C15.0253 9.29903 13.5982 6.58295 13.5982 6.58295C12.171 5.45905 10.8132 5.49027 10.8132 5.49027L10.6744 5.65677C12.3593 6.19791 13.1423 6.97839 13.1423 6.97839C10.788 5.62356 8.0225 5.62332 5.73881 6.67661C5.37211 6.85351 5.15407 6.97839 5.15407 6.97839C5.15407 6.97839 5.97667 6.15628 7.76064 5.61515L7.66153 5.49027C7.66153 5.49027 6.30373 5.45905 4.87656 6.58295C4.87656 6.58295 3.4494 9.29903 3.4494 12.6499C3.4494 12.6499 4.28191 14.1588 6.47222 14.2317C6.47222 14.2317 6.83892 13.7634 7.13625 13.3679C5.87757 12.9725 5.40184 12.14 5.40184 12.14C5.54764 12.2471 5.78806 12.386 5.80819 12.4001C7.48104 13.3838 9.85725 13.7061 11.9926 12.7644C12.3395 12.6291 12.726 12.4314 13.1323 12.1504C13.1323 12.1504 12.6368 13.0037 11.3385 13.3888C11.6358 13.7842 11.9926 14.2317 11.9926 14.2317C14.1829 14.1588 15.0253 12.6499 15.0253 12.6499Z" fill="#373737"/>
</svg>
