<svg width="19" height="19" viewBox="0 0 19 19" fill="none" xmlns="http://www.w3.org/2000/svg">
<path d="M18.8015 2.6963V16.8689C18.8015 17.9359 17.9359 18.8015 16.8689 18.8015H13.4344V11.6669H15.8744L16.2247 8.94512H13.4344V7.20576C13.4344 6.4166 13.6519 5.8811 14.7833 5.8811H16.2247V3.44922C15.975 3.41701 15.1215 3.34051 14.1229 3.34051C12.0454 3.34051 10.6201 4.60879 10.6201 6.94002V8.94914H8.17207V11.6709H10.6241V18.8015H2.6963C1.62933 18.8015 0.763672 17.9359 0.763672 16.8689V2.6963C0.763672 1.62933 1.62933 0.763672 2.6963 0.763672H16.8689C17.9359 0.763672 18.8015 1.62933 18.8015 2.6963Z" fill="#373737"/>
</svg>
