<svg width="19" height="19" viewBox="0 0 19 19" fill="none" xmlns="http://www.w3.org/2000/svg">
<path d="M9.74554 4.40938C7.18624 4.40938 5.1219 6.47418 5.1219 9.03405C5.1219 11.5939 7.18624 13.6587 9.74554 13.6587C12.3048 13.6587 14.3692 11.5939 14.3692 9.03405C14.3692 6.47418 12.3048 4.40938 9.74554 4.40938ZM9.74554 12.0407C8.09165 12.0407 6.73957 10.6923 6.73957 9.03405C6.73957 7.37577 8.08763 6.02741 9.74554 6.02741C11.4035 6.02741 12.7515 7.37577 12.7515 9.03405C12.7515 10.6923 11.3994 12.0407 9.74554 12.0407V12.0407ZM15.6368 4.22021C15.6368 4.81993 15.1539 5.2989 14.5583 5.2989C13.9587 5.2989 13.4799 4.8159 13.4799 4.22021C13.4799 3.62451 13.9628 3.14152 14.5583 3.14152C15.1539 3.14152 15.6368 3.62451 15.6368 4.22021ZM18.6991 5.315C18.6307 3.87004 18.3007 2.5901 17.2424 1.53556C16.1881 0.481025 14.9084 0.150979 13.4638 0.0785298C11.9749 -0.00599423 7.51219 -0.00599423 6.02329 0.0785298C4.58267 0.146954 3.30302 0.477 2.2447 1.53154C1.18637 2.58608 0.860421 3.86601 0.787988 5.31097C0.703483 6.8002 0.703483 11.2639 0.787988 12.7531C0.856397 14.1981 1.18637 15.478 2.2447 16.5325C3.30302 17.5871 4.57865 17.9171 6.02329 17.9896C7.51219 18.0741 11.9749 18.0741 13.4638 17.9896C14.9084 17.9212 16.1881 17.5911 17.2424 16.5325C18.2967 15.478 18.6266 14.1981 18.6991 12.7531C18.7836 11.2639 18.7836 6.80423 18.6991 5.315V5.315ZM16.7756 14.351C16.4617 15.1399 15.8541 15.7477 15.0613 16.0656C13.8742 16.5366 11.0574 16.4279 9.74554 16.4279C8.4337 16.4279 5.61283 16.5325 4.42976 16.0656C3.64104 15.7517 3.03341 15.1439 2.71551 14.351C2.2447 13.1637 2.35335 10.3462 2.35335 9.03405C2.35335 7.72192 2.24872 4.90043 2.71551 3.71709C3.02939 2.9282 3.63702 2.32043 4.42976 2.00246C5.61686 1.53154 8.4337 1.64021 9.74554 1.64021C11.0574 1.64021 13.8782 1.53556 15.0613 2.00246C15.85 2.3164 16.4577 2.92417 16.7756 3.71709C17.2464 4.90445 17.1377 7.72192 17.1377 9.03405C17.1377 10.3462 17.2464 13.1677 16.7756 14.351Z" fill="#373737"/>
</svg>
