<svg width="18" height="19" viewBox="0 0 18 19" fill="none" xmlns="http://www.w3.org/2000/svg">
<path d="M16.0297 0.389404H2.40224C1.37631 0.389404 0.543945 1.25506 0.543945 2.32203V16.4946C0.543945 17.5616 1.37631 18.4272 2.40224 18.4272H16.0297C17.0557 18.4272 17.888 17.5616 17.888 16.4946V2.32203C17.888 1.25506 17.0557 0.389404 16.0297 0.389404ZM14.1366 6.78317C14.1443 6.89591 14.1443 7.01267 14.1443 7.12541C14.1443 10.6162 11.5892 14.6385 6.92021 14.6385C5.48004 14.6385 4.14439 14.2036 3.02167 13.4548C3.22686 13.4789 3.4243 13.487 3.63336 13.487C4.82189 13.487 5.91364 13.0682 6.78471 12.3596C5.66974 12.3354 4.73285 11.5745 4.41152 10.5276C4.80253 10.588 5.15483 10.588 5.55747 10.4793C4.39603 10.2337 3.52496 9.17077 3.52496 7.88638V7.85417C3.86177 8.05146 4.25666 8.17225 4.6709 8.18835C4.32264 7.94743 4.03714 7.62059 3.83989 7.237C3.64263 6.85341 3.53976 6.42499 3.54044 5.98999C3.54044 5.49878 3.66433 5.04784 3.885 4.65728C5.13548 6.25975 7.01313 7.30659 9.11919 7.41933C8.75915 5.62762 10.0483 4.17413 11.5969 4.17413C12.3286 4.17413 12.9868 4.49221 13.4513 5.00757C14.0243 4.89484 14.5741 4.67339 15.0619 4.37142C14.8722 4.98342 14.4734 5.49878 13.9469 5.82491C14.4579 5.76854 14.9535 5.61957 15.4103 5.41423C15.0657 5.94168 14.6321 6.40873 14.1366 6.78317Z" fill="#373737"/>
</svg>
