<svg width="22" height="13" viewBox="0 0 22 13" fill="none" xmlns="http://www.w3.org/2000/svg">
<path d="M21.1198 0.888328C21.2628 0.400526 21.1198 0.0415039 20.4321 0.0415039H18.1563C17.5768 0.0415039 17.3102 0.349795 17.1672 0.693207C17.1672 0.693207 16.0081 3.54587 14.3699 5.39562C13.8406 5.93025 13.5972 6.10195 13.3074 6.10195C13.1644 6.10195 12.9442 5.93025 12.9442 5.44245V0.888328C12.9442 0.302966 12.7819 0.0415039 12.3028 0.0415039H8.72503C8.36184 0.0415039 8.14547 0.314673 8.14547 0.56833C8.14547 1.12247 8.96458 1.25125 9.04958 2.81222V6.19952C9.04958 6.94097 8.91821 7.07756 8.62844 7.07756C7.85569 7.07756 5.97793 4.21319 4.86519 0.935157C4.64109 0.299063 4.42086 0.0415039 3.83744 0.0415039H1.56172C0.912616 0.0415039 0.78125 0.349795 0.78125 0.693207C0.78125 1.30198 1.55399 4.32636 4.37836 8.32243C6.25998 11.0502 8.91049 12.5292 11.3214 12.5292C12.7703 12.5292 12.9481 12.2014 12.9481 11.6356C12.9481 9.02877 12.8167 8.78291 13.5431 8.78291C13.8792 8.78291 14.4588 8.95462 15.8111 10.2697C17.3565 11.8307 17.6116 12.5292 18.477 12.5292H20.7527C21.4018 12.5292 21.7303 12.2014 21.5409 11.5536C21.1082 10.1917 18.1834 7.38975 18.052 7.20244C17.7159 6.76537 17.8125 6.57024 18.052 6.18C18.0559 6.1761 20.8339 2.22686 21.1198 0.888328Z" fill="#373737"/>
</svg>
