<svg width="23" height="16" viewBox="0 0 23 16" fill="none" xmlns="http://www.w3.org/2000/svg">
<path d="M21.8697 2.66838C21.6224 1.72837 20.8936 0.988045 19.9683 0.736806C18.2911 0.280273 11.5658 0.280273 11.5658 0.280273C11.5658 0.280273 4.84054 0.280273 3.16332 0.736806C2.23801 0.988085 1.50925 1.72837 1.2619 2.66838C0.8125 4.37221 0.8125 7.92709 0.8125 7.92709C0.8125 7.92709 0.8125 11.482 1.2619 13.1858C1.50925 14.1258 2.23801 14.8353 3.16332 15.0865C4.84054 15.5431 11.5658 15.5431 11.5658 15.5431C11.5658 15.5431 18.2911 15.5431 19.9683 15.0865C20.8936 14.8353 21.6224 14.1258 21.8697 13.1858C22.3192 11.482 22.3191 7.92709 22.3191 7.92709C22.3191 7.92709 22.3192 4.37221 21.8697 2.66838ZM9.36627 11.1546V4.69952L14.9873 7.92717L9.36627 11.1546Z" fill="#373737"/>
</svg>
