<svg width="333" height="118" viewBox="0 0 333 118" fill="none" xmlns="http://www.w3.org/2000/svg">
<path d="M41.1783 40.9022H22.7466V55.5433H38.3517V92.4769L14.5129 78.5236V30.4405H50.754L48.8545 27.1651L42.8705 16.8803L42.2481 15.8059H6.40242C3.34883 15.8059 0.852794 18.459 0.852794 21.7148V81.9759C0.842335 83.2544 1.15404 84.5144 1.75857 85.6376C2.3631 86.7607 3.24056 87.7099 4.30834 88.3958L48.7507 115.929L52.0247 117.96V52.6347C52.0247 46.1691 47.1623 40.9087 41.1719 40.9087L41.1783 40.9022ZM70.5278 64.8782H56.8742V117.96L60.1482 115.929L104.584 88.3892C105.652 87.7033 106.529 86.7541 107.134 85.631C107.738 84.5079 108.05 83.2478 108.04 81.9694V21.7213C108.04 18.4656 105.544 15.8125 102.484 15.8125H65.9183L65.2959 16.8868L59.3119 27.1716L57.4058 30.447H94.3666V78.5302L70.5213 92.49V64.8782H70.5278ZM328.715 68.1144C329.606 68.1196 330.458 68.4807 331.086 69.119C331.714 69.7573 332.067 70.6207 332.067 71.5208V78.3664C332.063 79.2665 331.708 80.1285 331.077 80.7644C330.447 81.4002 329.593 81.758 328.702 81.7598H306.594V76.4536H325.363V73.4729C320.002 73.4729 314.666 73.486 309.304 73.4729C308.415 73.4678 307.563 73.1075 306.935 72.4706C306.307 71.8338 305.954 70.972 305.953 70.0731V63.5615C305.953 61.7338 307.431 60.2403 309.24 60.2403H331.237V65.553H312.663V68.1144H328.715ZM281.414 65.5595V68.5926H295.579V73.1651H281.414V76.4536H300.144V81.7598H278.567C277.638 81.7563 276.748 81.3818 276.091 80.7179C275.434 80.054 275.063 79.1546 275.06 78.2157V63.7908C275.063 62.8519 275.434 61.9525 276.091 61.2886C276.748 60.6247 277.638 60.2503 278.567 60.2468H300.144V65.553H281.407L281.414 65.5595ZM144.177 65.5595V76.4536H156.8V74.1608H150.459V69.3787H158.693C159.584 69.3804 160.438 69.7383 161.068 70.3741C161.699 71.0099 162.054 71.872 162.058 72.772V78.3402C162.054 79.2369 161.701 80.096 161.075 80.7313C160.449 81.3665 159.6 81.7267 158.712 81.7336L158.699 81.7598H141.188C140.296 81.7598 139.441 81.4027 138.809 80.7667C138.177 80.1307 137.82 79.2676 137.817 78.3664V63.6401C137.82 62.739 138.177 61.8759 138.809 61.2399C139.441 60.6039 140.296 60.2468 141.188 60.2468H161.351V65.553H144.177V65.5595ZM203.615 81.7598C202.684 81.7598 201.79 81.3868 201.13 80.7225C200.471 80.0583 200.098 79.1569 200.095 78.2157V63.7908C200.098 62.8497 200.471 61.9483 201.13 61.284C201.79 60.6198 202.684 60.2468 203.615 60.2468H223C223.93 60.2485 224.822 60.6223 225.48 61.2863C226.139 61.9504 226.51 62.8508 226.514 63.7908V78.2157C226.51 79.1557 226.139 80.0562 225.48 80.7202C224.822 81.3843 223.93 81.758 223 81.7598H203.615ZM171.381 81.7598C170.45 81.758 169.558 81.3843 168.9 80.7202C168.242 80.0562 167.87 79.1557 167.867 78.2157V63.7908C167.87 62.8508 168.242 61.9504 168.9 61.2863C169.558 60.6223 170.45 60.2485 171.381 60.2468H190.765C191.697 60.2468 192.59 60.6198 193.25 61.284C193.91 61.9483 194.282 62.8497 194.286 63.7908V78.2157C194.282 79.1557 193.911 80.0562 193.252 80.7202C192.594 81.3843 191.702 81.758 190.772 81.7598H171.387H171.381ZM269.245 60.2403H262.891V81.7598H269.245V60.2403ZM232.329 60.2403H253.711C254.604 60.242 255.46 60.6016 256.09 61.2403C256.721 61.8789 257.076 62.7444 257.076 63.6467V78.3664C257.072 79.2676 256.715 80.1307 256.084 80.7667C255.452 81.4027 254.596 81.7598 253.704 81.7598H232.329V60.2468V60.2403ZM174.227 76.4536H187.926V65.553H174.227V76.4536ZM206.455 76.4536H220.154V65.553H206.455V76.4536ZM238.683 76.4536H250.716V65.553H238.683V76.4536ZM292.727 41.1446H299.592L294.938 32.3599H296.176C298.056 32.3533 299.592 30.8008 299.592 28.901V22.7105C299.592 20.8042 298.056 19.2517 296.169 19.2517H273.024V24.6561H292.772V27.6826C287.32 27.6826 281.887 27.7415 276.434 27.7612C275.53 27.7664 274.664 28.1331 274.027 28.7812C273.389 29.4293 273.031 30.3061 273.031 31.22V41.1446H279.851V32.4123C282.581 32.4123 285.297 32.3992 288.02 32.3861L292.727 41.138V41.1446ZM328.657 27.2568C330.537 27.2633 332.067 28.8159 332.067 30.7156V37.6857C332.067 39.5855 330.53 41.1446 328.644 41.1446H306.16V35.7401H325.247V32.7071C319.794 32.7071 314.361 32.7267 308.915 32.7071C308.011 32.7019 307.146 32.3363 306.507 31.6898C305.869 31.0433 305.509 30.1682 305.505 29.2548V22.6319C305.507 21.7359 305.86 20.8772 306.487 20.2436C307.114 19.6101 307.964 19.2534 308.85 19.2517H331.218V24.6561H312.326V27.2633H328.657V27.2568ZM248.07 24.6561V27.7481H262.476V32.3992H248.057V35.7401H267.112V41.138H245.166C244.221 41.1346 243.316 40.7538 242.648 40.0789C241.98 39.404 241.604 38.4896 241.6 37.535V22.8612C241.604 21.9067 241.98 20.9922 242.648 20.3173C243.316 19.6424 244.221 19.2617 245.166 19.2582H267.112V24.6561H248.057H248.07ZM144.287 24.6561V35.7401H157.124V33.4146H150.68V28.5407H159.043C160.923 28.5407 162.466 30.0933 162.466 31.993V37.6595C162.466 39.5593 160.943 41.0987 159.069 41.1118L159.05 41.138H141.24C140.334 41.1346 139.467 40.7699 138.826 40.1234C138.185 39.4769 137.822 38.6009 137.817 37.6857V22.7105C137.817 20.8108 139.354 19.2517 141.24 19.2517H161.747V24.6561H144.281H144.287ZM228.699 30.6305L228.919 35.1047L229.217 41.138H235.688L234.618 19.2582H227.681L219.817 34.5413L211.933 19.2517H204.996L203.933 41.138H210.403L210.701 35.1112L210.915 30.6305L211.842 32.3992H211.816L214.228 37.0503H214.273L216.413 41.138H223.22L225.36 37.0503H225.399L227.81 32.3992H227.784L228.712 30.6305H228.699ZM198.014 41.138H191.077L189.261 37.6006H177.138L175.322 41.138H168.385L179.796 19.2582H186.603L198.014 41.138ZM186.862 32.9495L183.199 25.8549L179.543 32.9495H186.856H186.862ZM5.5207 0.87001H0.852794V2.84836H5.57905V9.67433H7.66016V3.03179C7.66016 2.45845 7.43475 1.90859 7.03353 1.50318C6.6323 1.09777 6.08812 0.87001 5.5207 0.87001ZM73.0952 0.87001L67.9669 9.67433H70.0675L74.0093 2.95973H75.0012L76.9981 6.37271H72.1681L73.2637 8.2004H78.0678L78.956 9.67433H81.0565L75.9154 0.87001H73.0952ZM91.702 0.87001V7.57807H90.9759L88.4539 4.64984C86.8914 2.82871 85.4068 1.191 85.4068 1.191C85.2123 0.994475 84.9465 0.87001 84.6418 0.87001H83.2868C82.4893 0.87001 81.841 1.52509 81.8345 2.33085V9.66778H83.9156V2.96628H84.6482C86.4843 5.10779 88.332 7.23902 90.1914 9.35989C90.3859 9.55642 90.6582 9.68089 90.9564 9.68089H92.3373C93.1348 9.68089 93.7831 9.0258 93.7896 8.22005V0.87001H91.702ZM106.549 0.87001H96.5709L97.7573 2.84836H105.959V7.69598H97.8545V3.50345H95.7669V9.68089H106.542C106.74 9.68175 106.936 9.64303 107.119 9.56696C107.302 9.49089 107.468 9.37898 107.608 9.23768C107.747 9.09638 107.858 8.9285 107.933 8.74372C108.009 8.55894 108.047 8.36092 108.046 8.16109V2.39635C108.048 2.19598 108.01 1.99726 107.935 1.81172C107.86 1.62618 107.75 1.45751 107.61 1.31552C107.47 1.17352 107.303 1.06102 107.12 0.984543C106.937 0.908066 106.74 0.869135 106.542 0.87001H106.549ZM52.1998 4.28955H43.9661L45.1461 6.2548H52.2128V9.67433H54.2939V0.87001H52.2192V4.28955H52.1998ZM30.1569 2.84836H37.833L39.0454 0.87001H29.5215C29.134 0.881933 28.7663 1.04592 28.4964 1.3272C28.2265 1.60848 28.0756 1.98492 28.0758 2.3767V8.20695C28.0758 9.0127 28.7241 9.67433 29.5215 9.67433H40.0697V7.70908L30.1634 7.70253V2.84836H30.1569ZM58.3394 0.883111H56.2648V8.20695C56.2648 9.0127 56.9131 9.66778 57.704 9.67433H67.1501V7.70908H58.3459V0.883111H58.3394ZM43.7198 0.883111H41.6322V9.67433H43.7262V0.889662L43.7198 0.883111ZM16.2504 7.72874V2.84836H23.2393L24.4322 0.87001H16.3088C15.7413 0.87001 15.1972 1.09777 14.7959 1.50318C14.3947 1.90859 14.1693 2.45845 14.1693 3.03179V7.51256C14.1693 8.0859 14.3947 8.63575 14.7959 9.04117C15.1972 9.44658 15.7413 9.67433 16.3088 9.67433H26.1114V7.72219H16.2569L16.2504 7.72874ZM17.56 6.16964H26.1114V4.36816H16.4773L17.5535 6.16309L17.56 6.16964Z" fill="white"/>
<path d="M332.069 50.1388H251.541V45.7694C251.542 45.7425 251.537 45.7157 251.527 45.6907C251.518 45.6656 251.503 45.6428 251.484 45.6238C251.465 45.6048 251.443 45.5898 251.418 45.58C251.393 45.5701 251.366 45.5654 251.34 45.5664H218.554C218.503 45.5664 218.453 45.5871 218.417 45.6239C218.38 45.6608 218.36 45.7108 218.36 45.7629V50.1388H137.819V51.2394H218.347V55.6153C218.347 55.7267 218.438 55.8119 218.548 55.8119H251.333C251.385 55.8119 251.434 55.7912 251.471 55.7543C251.507 55.7175 251.528 55.6675 251.528 55.6153V51.2394H332.062V50.1388H332.069ZM87.8982 40.9022H56.8696V55.5433H78.1604L78.8022 54.5803L85.642 44.2889L87.8917 40.9022H87.8982ZM8.10938 2.8418H12.129L13.3024 0.869995H8.11586V2.84835L8.10938 2.8418Z" fill="#DB0811"/>
<path fill-rule="evenodd" clip-rule="evenodd" d="M230.554 53.8986H228.518L227.98 52.857H224.414L223.876 53.8986H221.834L225.192 47.4526H227.202L230.56 53.8986H230.554ZM238.891 53.8986H236.985L233.536 50.2433V53.8986H231.63V47.446H233.536L236.985 51.1014V47.446H238.891V53.8921V53.8986ZM240.331 47.4526H246.736C247.294 47.4526 247.747 47.9112 247.747 48.468V52.8832C247.747 53.4401 247.294 53.8986 246.736 53.8986H240.331V47.446V47.4526ZM242.237 52.3068H245.841V49.0445H242.237V52.3068ZM227.273 51.4879L226.197 49.3916L225.121 51.4879H227.273Z" fill="white"/>
</svg>
